<?xml version="1.0" encoding="UTF-8"?><svg id="Layer_1" xmlns="http://www.w3.org/2000/svg" viewBox="0 0 280 96"><defs><style>.cls-1{fill:#ec008c;}.cls-2{fill:#f37021;}.cls-3{fill:#27aae1;}.cls-4{fill:#58595b;}</style></defs><path class="cls-1" d="m218.11,81.98c0-2.24.54-4.28,1.62-6.12,1.08-1.84,2.55-3.31,4.42-4.39,1.86-1.08,3.95-1.62,6.27-1.62s4.45.54,6.3,1.62c1.85,1.08,3.3,2.54,4.36,4.39,1.06,1.84,1.59,3.88,1.59,6.12s-.53,4.28-1.59,6.12c-1.06,1.85-2.52,3.31-4.39,4.39-1.87,1.08-3.96,1.62-6.27,1.62s-4.45-.52-6.3-1.56c-1.84-1.04-3.31-2.47-4.39-4.3-1.08-1.82-1.62-3.92-1.62-6.27Z"/><path class="cls-3" d="m218.11,48c0-2.24.54-4.28,1.62-6.12,1.08-1.84,2.55-3.31,4.42-4.39,1.86-1.08,3.95-1.62,6.27-1.62s4.45.54,6.3,1.62c1.85,1.08,3.3,2.54,4.36,4.39,1.06,1.85,1.59,3.89,1.59,6.12s-.53,4.28-1.59,6.12c-1.06,1.84-2.52,3.31-4.39,4.39-1.87,1.08-3.96,1.62-6.27,1.62s-4.45-.52-6.3-1.56c-1.84-1.04-3.31-2.47-4.39-4.3-1.08-1.82-1.62-3.92-1.62-6.27Z"/><path class="cls-2" d="m218.11,14.02c0-2.24.54-4.28,1.62-6.12,1.08-1.85,2.55-3.31,4.42-4.39,1.86-1.08,3.95-1.62,6.27-1.62s4.45.54,6.3,1.62c1.85,1.08,3.3,2.54,4.36,4.39,1.06,1.84,1.59,3.88,1.59,6.12s-.53,4.28-1.59,6.12c-1.06,1.85-2.52,3.31-4.39,4.39-1.87,1.08-3.96,1.62-6.27,1.62s-4.45-.52-6.3-1.56c-1.84-1.04-3.31-2.47-4.39-4.3-1.08-1.82-1.62-3.91-1.62-6.27Z"/><path class="cls-4" d="m20.16,93.23c-1.33.46-2.7.7-4.09.7-2.28,0-4.34-.51-6.18-1.54-1.84-1.02-3.28-2.44-4.32-4.24-1.04-1.8-1.57-3.82-1.57-6.06s.53-4.26,1.6-6.06c1.06-1.8,2.5-3.21,4.32-4.24,1.82-1.02,3.79-1.54,5.92-1.54,3.13,0,5.78.89,7.95,2.67l-1.45,1.86c-1.93-1.51-4.04-2.26-6.32-2.26-1.7,0-3.26.43-4.67,1.28-1.41.85-2.53,2.01-3.36,3.48-.83,1.47-1.25,3.07-1.25,4.81s.42,3.34,1.25,4.79c.83,1.45,1.97,2.6,3.42,3.45s3.06,1.28,4.84,1.28c2.17,0,4.16-.68,5.98-2.03l1.51,1.68c-1.04.85-2.23,1.51-3.57,1.97Z"/><path class="cls-4" d="m37.73,61.07c.41-.37.88-.55,1.42-.55s1.01.18,1.39.55c.39.37.58.82.58,1.36,0,.58-.19,1.05-.58,1.42-.39.37-.85.55-1.39.55s-1.02-.19-1.42-.58c-.41-.39-.61-.85-.61-1.39s.2-1,.61-1.36Zm2.7,9.72v22.68h-2.73v-22.68h2.73Z"/><path class="cls-4" d="m74.42,72.03c1.31,1.26,2.01,2.89,2.09,4.9v16.53h-2.78v-15.78c-.08-1.51-.56-2.74-1.45-3.68-.89-.95-2.17-1.44-3.83-1.48-1.55,0-2.97.37-4.26,1.1-1.3.73-2.34,1.77-3.13,3.1-.79,1.33-1.19,2.85-1.19,4.55v12.18h-2.73v-22.68h2.38l.23,5.05c.73-1.74,1.98-3.12,3.74-4.15,1.76-1.02,3.7-1.54,5.83-1.54s3.79.63,5.1,1.89Z"/><path class="cls-4" d="m110.5,72.03c1.31,1.26,2.01,2.89,2.09,4.9v16.53h-2.78v-15.78c-.08-1.51-.56-2.74-1.45-3.68-.89-.95-2.17-1.44-3.83-1.48-1.55,0-2.97.37-4.26,1.1-1.3.73-2.34,1.77-3.13,3.1-.79,1.33-1.19,2.85-1.19,4.55v12.18h-2.73v-22.68h2.38l.23,5.05c.73-1.74,1.98-3.12,3.74-4.15,1.76-1.02,3.7-1.54,5.83-1.54s3.79.63,5.1,1.89Z"/><path class="cls-4" d="m151.4,70.78v22.68h-2.73v-4.81c-.89,1.47-2.24,2.72-4.06,3.74-1.82,1.02-3.79,1.54-5.92,1.54s-4.13-.49-5.89-1.48c-1.76-.99-3.15-2.38-4.18-4.18-1.02-1.8-1.54-3.86-1.54-6.18,0-2.47.53-4.61,1.6-6.41,1.06-1.8,2.53-3.18,4.41-4.15,1.88-.97,3.99-1.45,6.35-1.45,1.86,0,3.63.52,5.34,1.57,1.7,1.04,3,2.4,3.89,4.06l.29-4.93h2.44Zm-5.63,18.45c1.78-1.58,2.75-3.62,2.9-6.09v-3.25c-.46-2.13-1.59-3.91-3.36-5.34-1.78-1.43-3.81-2.15-6.09-2.15-1.74,0-3.33.4-4.76,1.19-1.43.79-2.56,1.91-3.39,3.36-.83,1.45-1.25,3.12-1.25,5.02,0,1.74.43,3.35,1.28,4.81.85,1.47,2,2.64,3.45,3.51,1.45.87,3.03,1.3,4.73,1.3,2.55,0,4.72-.79,6.5-2.38Z"/><path class="cls-4" d="m201.4,72c1.28,1.24,1.95,2.88,2.03,4.93v16.53h-2.73v-15.95c-.08-1.39-.53-2.55-1.36-3.48-.83-.93-2.04-1.43-3.63-1.51-1.51,0-2.9.39-4.18,1.16s-2.31,1.81-3.1,3.1c-.79,1.3-1.23,2.72-1.31,4.26v12.41h-2.73v-15.95c-.08-1.39-.54-2.55-1.39-3.48-.85-.93-2.07-1.43-3.65-1.51-1.51,0-2.92.39-4.23,1.16-1.32.77-2.36,1.84-3.13,3.19-.77,1.35-1.16,2.82-1.16,4.41v12.18h-2.73v-22.68h2.38l.23,4.99c.85-1.74,2.13-3.11,3.83-4.12,1.7-1,3.56-1.51,5.57-1.51,1.82,0,3.38.49,4.7,1.48,1.31.99,2.09,2.25,2.32,3.8.89-1.66,2.16-2.96,3.8-3.89,1.64-.93,3.43-1.39,5.37-1.39,2.13,0,3.83.62,5.1,1.86Z"/><path class="cls-4" d="m273.91,72.03c1.31,1.26,2.01,2.89,2.09,4.9v16.53h-2.78v-15.78c-.08-1.51-.56-2.74-1.45-3.68-.89-.95-2.17-1.44-3.83-1.48-1.55,0-2.97.37-4.26,1.1-1.3.73-2.34,1.77-3.13,3.1-.79,1.33-1.19,2.85-1.19,4.55v12.18h-2.73v-22.68h2.38l.23,5.05c.73-1.74,1.98-3.12,3.74-4.15,1.76-1.02,3.7-1.54,5.83-1.54s3.79.63,5.1,1.89Z"/></svg>